<svg id="Ebene_1" data-name="Ebene 1" xmlns="http://www.w3.org/2000/svg" viewBox="0 0 72 72"><title>190130</title><circle cx="28" cy="17" r="4" style="fill:#43b02a"/><circle cx="36" cy="8" r="4" style="fill:#43b02a"/><path d="M39,37a2,2,0,0,1-1.15-.36,8,8,0,0,0-9.7,0,2,2,0,1,1-2.3-3.28,12,12,0,0,1,14.3,0A2,2,0,0,1,39,37Z" style="fill:#43b02a"/><circle cx="21" cy="40" r="2" style="fill:#fff"/><path d="M63.22,36.52A1.44,1.44,0,0,1,64,36a2,2,0,0,0,0-4c-2,0-3.83,1.38-5.2,3.89-.12.22-.23.44-.34.66A7.87,7.87,0,0,0,56,38.45C52.94,30.67,43.79,25,33,25a33,33,0,0,0-7.72.86L16,20.55V31a17.94,17.94,0,0,0-5.29,6H6V51h4.71a17,17,0,0,0,5.48,6.17L18.36,68h6.88l2.85-5.71A22.28,22.28,0,0,0,33,63a29,29,0,0,0,5.67-.66L40.56,68H49V58.07c5-3.51,7.85-8.43,8-13.68.07-.18.16-.4.28-.67A3.78,3.78,0,0,0,61,47a4.72,4.72,0,0,0,3.84-1.88A6,6,0,0,0,66,41.5,5.37,5.37,0,0,0,63.22,36.52ZM45.92,55.31,45,55.9V64H43.44l-2.12-6.37-1.79.43A30,30,0,0,1,33,59a21,21,0,0,1-4.36-.68L27.41,58l-1.51-.32L22.76,64H21.64L19.8,54.82l-.66-.46c-2.84-2-4.32-3.69-5.28-6.1L13.36,47H10V41h3.36l.5-1.26c.89-2.25,2.48-4.08,5.31-6.12L20,33V27.45l4.74,2.71.81-.24A28.16,28.16,0,0,1,33,29c11,0,20,6.73,20,15C53,48.38,50.49,52.4,45.92,55.31ZM61.66,42.69a.68.68,0,0,1-.47.29,6.29,6.29,0,0,1,.22-2.88c.57.31.59,1.27.59,1.4A2,2,0,0,1,61.66,42.69Z" style="fill:#fff"/></svg>