<svg id="piggy-bank-euro_svg__Ebene_1" data-name="Ebene 1" xmlns="http://www.w3.org/2000/svg" viewBox="0 0 72 72"><path d="M39.63,36.89A2.32,2.32,0,0,1,39,37a2,2,0,0,1-1.15-.36l-.16-.1a16.66,16.66,0,0,1-3.94-1.48C33.5,35,33.26,35,33,35a8.12,8.12,0,0,0-4.85,1.64,2,2,0,1,1-2.3-3.28,13.25,13.25,0,0,1,3.47-1.77,16.35,16.35,0,0,1-1.65-2.15,21.55,21.55,0,0,0-2.12.48l-.81.24L20,27.45V33l-.83.6c-2.83,2-4.42,3.87-5.31,6.12L13.36,41H10v6h3.36l.5,1.26c1,2.41,2.44,4.12,5.28,6.1l.66.46L21.64,64h1.12l3.14-6.28,1.51.32,1.23.28A21,21,0,0,0,33,59a30,30,0,0,0,6.53-.94l1.79-.43L43.44,64H45V55.9l.92-.59C50.49,52.4,53,48.38,53,44a12.7,12.7,0,0,0-3.91-8.86,16.33,16.33,0,0,1-9.46,1.75ZM21,42a2,2,0,1,1,2-2A2,2,0,0,1,21,42Z" fill="none"/><path d="M35,31.18a12,12,0,0,1,4.23,1.61A12.54,12.54,0,1,0,35,31.18Zm-1.52-10a7.77,7.77,0,0,1,0-.83H32l.24-1.9h1.63a8.46,8.46,0,0,1,8.58-6.44,16.33,16.33,0,0,1,2.6.2l-.49,3.1a8.35,8.35,0,0,0-2.05-.26,5.05,5.05,0,0,0-4.94,3.4h6.31l-.26,1.9H37.19a4.68,4.68,0,0,0,0,.83,3.78,3.78,0,0,0,0,.76H43.4l-.26,1.9H37.5a4.92,4.92,0,0,0,5,3.61,7.58,7.58,0,0,0,2-.23l.16,3.14a13.4,13.4,0,0,1-2.34.21c-4.66,0-7.78-2.63-8.56-6.73H32L32.2,22h1.35A6.27,6.27,0,0,1,33.52,21.22Z" fill="none"/><path d="M61.41,40.1A6.29,6.29,0,0,0,61.19,43a.68.68,0,0,0,.47-.29A2,2,0,0,0,62,41.5C62,41.37,62,40.41,61.41,40.1Z" fill="none"/><circle cx="21" cy="40" r="2" fill="#fff"/><path d="M63.22,36.52A1.44,1.44,0,0,1,64,36a2,2,0,0,0,0-4c-2,0-3.83,1.38-5.2,3.89-.12.22-.23.44-.34.66a7.94,7.94,0,0,0-2.52,1.91,17.7,17.7,0,0,0-3.52-5.63,16.37,16.37,0,0,1-3.33,2.31A12.7,12.7,0,0,1,53,44c0,4.38-2.51,8.4-7.08,11.31L45,55.9V64H43.44l-2.12-6.37-1.79.43A30,30,0,0,1,33,59a21,21,0,0,1-4.36-.68L27.41,58l-1.51-.32L22.76,64H21.64L19.8,54.82l-.66-.46c-2.84-2-4.32-3.69-5.28-6.1L13.36,47H10V41h3.36l.5-1.26c.89-2.25,2.48-4.08,5.31-6.12L20,33V27.45l4.74,2.71.81-.24a21.55,21.55,0,0,1,2.12-.48,15.89,15.89,0,0,1-1.79-3.71l-.6.13L16,20.55V31a17.94,17.94,0,0,0-5.29,6H6V51h4.71a17,17,0,0,0,5.48,6.17L18.36,68h6.88l2.85-5.71A22.28,22.28,0,0,0,33,63a29,29,0,0,0,5.67-.66L40.56,68H49V58.07c5-3.51,7.85-8.43,8-13.68.07-.18.16-.4.28-.67A3.78,3.78,0,0,0,61,47a4.72,4.72,0,0,0,3.84-1.88A6,6,0,0,0,66,41.5,5.37,5.37,0,0,0,63.22,36.52Zm-1.56,6.17a.68.68,0,0,1-.47.29,6.29,6.29,0,0,1,.22-2.88c.57.31.59,1.27.59,1.4A2,2,0,0,1,61.66,42.69Z" fill="#fff"/><path d="M29.32,31.59a13.25,13.25,0,0,0-3.47,1.77,2,2,0,1,0,2.3,3.28A8.12,8.12,0,0,1,33,35c.26,0,.5,0,.75.06a16.66,16.66,0,0,0,3.94,1.48l.16.1A2,2,0,0,0,39,37a2.32,2.32,0,0,0,.63-.11A16.5,16.5,0,1,0,25,20.5a16.17,16.17,0,0,0,.88,5.23,15.89,15.89,0,0,0,1.79,3.71A16.35,16.35,0,0,0,29.32,31.59ZM41.5,8a12.5,12.5,0,1,1-2.23,24.79A12,12,0,0,0,35,31.18,12.49,12.49,0,0,1,41.5,8Z" fill="#43b02a"/><path d="M32,23.88h1.82c.78,4.1,3.9,6.73,8.56,6.73a13.4,13.4,0,0,0,2.34-.21l-.16-3.14a7.58,7.58,0,0,1-2,.23,4.92,4.92,0,0,1-5-3.61h5.64L43.4,22H37.19a3.78,3.78,0,0,1,0-.76,4.68,4.68,0,0,1,0-.83h6.39l.26-1.9H37.53a5.05,5.05,0,0,1,4.94-3.4,8.35,8.35,0,0,1,2.05.26l.49-3.1a16.33,16.33,0,0,0-2.6-.2,8.46,8.46,0,0,0-8.58,6.44H32.2L32,20.39h1.59a7.77,7.77,0,0,0,0,.83,6.27,6.27,0,0,0,0,.76H32.2Z" fill="#fff"/></svg>