<svg version="1.1" id="Union_Investment_Bildmarke" xmlns="http://www.w3.org/2000/svg" xmlns:xlink="http://www.w3.org/1999/xlink"
	 x="0px" y="0px" viewBox="0 0 35.7 42.8" style="enable-background:new 0 0 35.7 42.8;" xml:space="preserve">
<style type="text/css">
	.st0{fill:#00358E;}
</style>
<g>
	<path class="st0" d="M27.3,4.8c-0.6-3.2-3.8-5.3-7-4.7c-3.2,0.6-5.3,3.8-4.7,7c0.6,3.2,3.8,5.3,7,4.7C25.8,11.2,27.9,8,27.3,4.8
		 M17.9,42.8c10.5,0,17.8-7.4,17.8-19V4.7l-2.1,0.4c-2.8,0.5-3.2,2.3-3.2,5.5v12.8c0,5.6-3.7,8.7-8.4,8.7c-4.5,0-8.4-3.1-8.4-8.7
		V13.1c0-2.5-1.7-3.7-4-3.3L0,11.6v12.2C0,35.5,7,42.8,17.9,42.8"/>
</g>
</svg>
